<?xml version="1.0" encoding="UTF-8" standalone="no"?>
<!-- Generator: Adobe Illustrator 19.2.1, SVG Export Plug-In . SVG Version: 6.00 Build 0)  -->

<svg
   xmlns:dc="http://purl.org/dc/elements/1.1/"
   xmlns:cc="http://creativecommons.org/ns#"
   xmlns:rdf="http://www.w3.org/1999/02/22-rdf-syntax-ns#"
   xmlns:svg="http://www.w3.org/2000/svg"
   xmlns="http://www.w3.org/2000/svg"
   xmlns:sodipodi="http://sodipodi.sourceforge.net/DTD/sodipodi-0.dtd"
   xmlns:inkscape="http://www.inkscape.org/namespaces/inkscape"
   version="1.1"
   id="Layer_1"
   x="0px"
   y="0px"
   viewBox="0 0 360 360"
   style="enable-background:new 0 0 360 360;"
   xml:space="preserve"
   sodipodi:docname="logo.svg"
   inkscape:version="0.92.2 5c3e80d, 2017-08-06"><metadata
     id="metadata21"><rdf:RDF><cc:Work
         rdf:about=""><dc:format>image/svg+xml</dc:format><dc:type
           rdf:resource="http://purl.org/dc/dcmitype/StillImage" /></cc:Work></rdf:RDF></metadata><defs
     id="defs19"><clipPath
       clipPathUnits="userSpaceOnUse"
       id="clipPath3751"><path
         d="m 0,331.75 h 595 v 178.5 H 0 Z"
         id="path3749"
         inkscape:connector-curvature="0" /></clipPath></defs><sodipodi:namedview
     pagecolor="#ffffff"
     bordercolor="#666666"
     borderopacity="1"
     objecttolerance="10"
     gridtolerance="10"
     guidetolerance="10"
     inkscape:pageopacity="0"
     inkscape:pageshadow="2"
     inkscape:window-width="1893"
     inkscape:window-height="1143"
     id="namedview17"
     showgrid="false"
     inkscape:zoom="1.8541911"
     inkscape:cx="162.02621"
     inkscape:cy="213.77485"
     inkscape:window-x="71"
     inkscape:window-y="36"
     inkscape:window-maximized="0"
     inkscape:current-layer="Layer_1" /><style
     type="text/css"
     id="style2">
	.st0{fill:#231F20;}
	.st1{fill:#9EACB5;}
	.st2{fill:#D3C6A6;}
</style><circle
     class="st0"
     cx="179.9"
     cy="180.2"
     r="158.6"
     id="circle4" /><polygon
     class="st1"
     points="180.1,172.8 148.9,153.9 148.8,153.9 180.1,286.3 211.3,153.9 211.3,153.9 "
     id="polygon6" /><path
     class="st1"
     d="M70.6,78.2l15.8,15.8c2.3-2.5,4.7-4.9,7.2-7.2L77.8,71c11.5-10.8,24.7-19.7,39.2-26.4l4.1,9.6  c3.1-1.4,6.2-2.7,9.4-4l-4.1-9.6c15.1-5.8,31.4-9.2,48.4-9.7v22.3c1.7-0.1,3.4-0.3,5.1-0.3c1.7,0,3.4,0.2,5.1,0.3V30.8  c16.3,0.5,31.9,3.7,46.4,9l-3.9,9.7c3.2,1.2,6.4,2.4,9.4,3.8l3.9-9.7c15.2,6.8,29.1,16.1,41.1,27.3l-15.8,15.8  c2.5,2.3,4.9,4.7,7.2,7.2l15.8-15.8c5.3,5.7,10.1,11.9,14.5,18.4l9.8-2.4c-28.3-43.8-77.4-73-133.4-73c-56,0-105.1,29.1-133.4,72.9  l9.7,2.4C60.6,90,65.3,83.8,70.6,78.2z M334.8,145.2l-7.4,12.1c0.9,5.8,1.6,11.7,1.8,17.8h-12.7l-6.3,10.2h19  c-0.5,16.3-3.7,31.9-9,46.4l-9.7-3.9c-1.2,3.2-2.4,6.4-3.8,9.4l9.7,3.9c-6.8,15.2-16.1,29.1-27.3,41.1l-15.8-15.8  c-2.3,2.5-4.7,4.9-7.2,7.2l15.8,15.8c-11.5,10.8-24.7,19.7-39.2,26.4l-4.1-9.6c-3.1,1.4-6.2,2.7-9.4,4l4.1,9.6  c-15.1,5.8-31.4,9.2-48.4,9.7v-22.3c-1.7,0.1-3.4,0.3-5.1,0.3c-1.7,0-3.4-0.2-5.1-0.3v22.3c-16.3-0.5-31.9-3.7-46.4-9l3.9-9.7  c-3.2-1.2-6.4-2.4-9.4-3.8l-3.9,9.7c-15.2-6.8-29.1-16.1-41.1-27.3l15.8-15.8c-2.5-2.3-4.9-4.7-7.2-7.2l-15.8,15.8  c-10.8-11.5-19.7-24.7-26.4-39.2l9.6-4.1c-1.4-3.1-2.7-6.2-4-9.4l-9.6,4.1c-5.8-15.1-9.2-31.4-9.7-48.4h19.4l-6.3-10.2H30.5  c0.2-6.2,0.9-12.3,1.9-18.3l-7.4-12c-2.6,11.4-4.1,23.2-4.1,35.4c0,87.8,71.2,159,159,159s159-71.2,159-159  C338.8,168.2,337.4,156.5,334.8,145.2z"
     id="path8" /><g
     id="g14"><path
       class="st2"
       d="M250.1,148.9l85.8-21.4l17.2-27.9l-139.2,34.5l14.8,11.3l-22,92.4l53.5-13.3l17.2-27.9l-42,10.5l4-15.7   l58.6-14.6l17.2-27.9l-69.9,17.4l4-17.2L250.1,148.9z"
       id="path10" /><polygon
       class="st2"
       points="146.3,134.2 7.1,99.6 24.2,127.5 110.9,149.1 114.9,166.4 45,148.9 62.1,176.8 120.8,191.4    124.8,207.1 82.8,196.7 99.9,224.6 153.4,237.9 131.5,145.4  "
       id="polygon12" /></g><path
     d="m 267.64634,242.32949 c 4.46314,0 6.69785,2.23497 6.69785,6.69811 v 12.76727 c 0,4.46994 -2.23471,6.69786 -6.69785,6.69786 h -71.7705 v -20.35209 l 0.95693,-0.5099 c 18.86459,-10.12029 41.33991,-29.27132 41.33991,-69.22822 0,-29.59951 -20.10771,-61.06352 -57.3688,-61.06352 -34.05535,0 -58.77269,26.17004 -58.77269,62.22984 0,36.37414 21.32285,58.36771 41.2911,68.01987 l 1.00574,0.49607 v 20.40795 H 92.333797 c -4.46289,0 -6.69788,-2.22792 -6.69788,-6.69786 V 249.0276 c 0,-4.46314 2.23499,-6.69811 6.69788,-6.69811 H 124.8667 c -12.89989,-9.68714 -31.436313,-30.59797 -31.436313,-67.85226 0,-46.74585 35.256683,-81.988432 87.135913,-81.988432 56.24452,0 85.98369,41.332872 85.98369,81.297062 0,38.12033 -18.87167,58.95439 -32.01593,68.54363 h 33.11228"
     style="fill:#ee2433;fill-opacity:1;fill-rule:nonzero;stroke:none;stroke-width:2.3476584"
     id="path3761"
     inkscape:connector-curvature="0" /></svg>